<?xml version="1.0" encoding="UTF-8"?>
<svg width="20px" height="20px" viewBox="0 0 20 20" version="1.1" xmlns="http://www.w3.org/2000/svg" xmlns:xlink="http://www.w3.org/1999/xlink">
    <title>Iconly/Bold/Tick Square</title>
    <g id="Symbols" stroke="none" stroke-width="1" fill="none" fill-rule="evenodd">
        <g id="Dashboard/List/4x/Approval" transform="translate(-330.000000, -18.000000)" fill="#4CAF50">
            <g id="Dashboard/List/4x/Primary" transform="translate(0.000000, 16.000000)">
                <g id="Group" transform="translate(328.000000, 0.000000)">
                    <g id="Tick-Square" transform="translate(2.000000, 2.000000)">
                        <path d="M14.3344,0.0002 C17.7381844,0.0002 20.0004,2.42970377 20.0004,5.9162 L20.0004,5.9162 L20.0004,14.0842 C20.0004,17.5708677 17.7380115,20.0002 14.3334,20.0002 L14.3334,20.0002 L5.6654,20.0002 C2.26176975,20.0002 0.0004,17.5708903 0.0004,14.0842 L0.0004,14.0842 L0.0004,5.9162 C0.0004,2.43279577 2.26782569,0.0002 5.6654,0.0002 L5.6654,0.0002 Z M14.3344,1.5002 L5.6654,1.5002 C3.120739,1.5002 1.5004,3.23857221 1.5004,5.9162 L1.5004,5.9162 L1.5004,14.0842 C1.5004,16.7655207 3.11515962,18.5002 5.6654,18.5002 L5.6654,18.5002 L14.3334,18.5002 C16.8847807,18.5002 18.5004,16.7653625 18.5004,14.0842 L18.5004,14.0842 L18.5004,5.9162 C18.5004,3.23516374 16.8849006,1.5002 14.3344,1.5002 L14.3344,1.5002 Z M14.0902301,7.09686991 C14.3564966,7.36313648 14.3807027,7.77980016 14.1628482,8.07341165 L14.0902301,8.15753009 L9.34423009,12.9035301 C9.07800319,13.169757 8.66141431,13.1940008 8.36780253,12.9762326 L8.28368164,12.9036418 L5.90968164,10.5306418 C5.61672673,10.2378103 5.6166267,9.76293656 5.90945821,9.46998164 C6.17566867,9.203659 6.59232725,9.17936517 6.88598463,9.39715778 L6.97011836,9.46975821 L8.813,11.312 L13.0295699,7.09686991 C13.3224631,6.8039767 13.7973369,6.8039767 14.0902301,7.09686991 Z"></path>
                    </g>
                </g>
            </g>
        </g>
    </g>
</svg>