<?xml version="1.0" encoding="UTF-8"?>
<svg width="56px" height="56px" viewBox="0 0 56 56" version="1.1" xmlns="http://www.w3.org/2000/svg" xmlns:xlink="http://www.w3.org/1999/xlink">
    <title>Group</title>
    <g id="Caption.Ed" stroke="none" stroke-width="1" fill="none" fill-rule="evenodd">
        <g id="Dashboard---Student" transform="translate(-300.000000, -307.000000)">
            <g id="Cards" transform="translate(276.000000, 283.000000)">
                <g id="Group" transform="translate(24.000000, 24.000000)">
                    <rect id="Icon-Background" fill="#B3E5FC" x="0" y="0" width="56" height="56" rx="4"></rect>
                    <g transform="translate(12.000000, 12.000000)" fill="#03A9F4" id="Iconly/Bold/Time-Square">
                        <g id="Time-Square" transform="translate(2.666533, 2.666800)">
                            <path d="M19.12,0 C23.64,0 26.6666667,3.172 26.6666667,7.892 L26.6666667,7.892 L26.6666667,18.7853333 C26.6666667,23.4933333 23.64,26.6666667 19.12,26.6666667 L19.12,26.6666667 L7.56,26.6666667 C3.04,26.6666667 0,23.4933333 0,18.7853333 L0,18.7853333 L0,7.892 C0,3.172 3.04,0 7.56,0 L7.56,0 Z M12.8666667,6.55866667 C12.32,6.55866667 11.8666667,7.01333333 11.8666667,7.55866667 L11.8666667,7.55866667 L11.8666667,14.2933333 C11.8666667,14.64 12.0533333,14.9733333 12.36,15.1466667 L12.36,15.1466667 L17.5866667,18.2666667 C17.7466667,18.3733333 17.9333333,18.4133333 18.1066667,18.4133333 C18.44,18.4133333 18.7733333,18.24 18.96,17.92 C19.2533333,17.452 19.0933333,16.8386667 18.6133333,16.5466667 L18.6133333,16.5466667 L13.8666667,13.72 L13.8666667,7.55866667 C13.8666667,7.01333333 13.4266667,6.55866667 12.8666667,6.55866667 Z"></path>
                        </g>
                    </g>
                </g>
            </g>
        </g>
    </g>
</svg>