<?xml version="1.0" encoding="UTF-8"?>
<svg width="20px" height="20px" viewBox="0 0 20 20" version="1.1" xmlns="http://www.w3.org/2000/svg" xmlns:xlink="http://www.w3.org/1999/xlink">
    <title>Close Square</title>
    <g id="Symbols" stroke="none" stroke-width="1" fill="none" fill-rule="evenodd">
        <g id="Dashboard/List/4x/Approval" transform="translate(-362.000000, -18.000000)" fill="#F44336">
            <g id="Dashboard/List/4x/Primary" transform="translate(0.000000, 16.000000)">
                <g id="Close-Square" transform="translate(362.000000, 2.000000)">
                    <path d="M14.3345,0.0002 C17.7382844,0.0002 20.0005,2.42970377 20.0005,5.9162 L20.0005,5.9162 L20.0005,14.0842 C20.0005,17.5708677 17.7381115,20.0002 14.3335,20.0002 L14.3335,20.0002 L5.6655,20.0002 C2.26186975,20.0002 0.0005,17.5708903 0.0005,14.0842 L0.0005,14.0842 L0.0005,5.9162 C0.0005,2.43279577 2.26792569,0.0002 5.6655,0.0002 L5.6655,0.0002 Z M14.3345,1.5002 L5.6655,1.5002 C3.120839,1.5002 1.5005,3.23857221 1.5005,5.9162 L1.5005,5.9162 L1.5005,14.0842 C1.5005,16.7655207 3.11525962,18.5002 5.6655,18.5002 L5.6655,18.5002 L14.3335,18.5002 C16.8848807,18.5002 18.5005,16.7653625 18.5005,14.0842 L18.5005,14.0842 L18.5005,5.9162 C18.5005,3.23516374 16.8850006,1.5002 14.3345,1.5002 L14.3345,1.5002 Z M8.0472745,6.98989828 L8.13138537,7.0625252 L9.9985,8.9302 L11.8651699,7.06456991 C12.1580631,6.7716767 12.6329369,6.7716767 12.9258301,7.06456991 C13.1920966,7.33083648 13.2163027,7.74750016 12.9984482,8.04111165 L12.9258301,8.12523009 L11.0595,9.9912 L12.9273854,11.8595252 C13.2202481,12.1524489 13.2201985,12.6273227 12.9272748,12.9201854 C12.6609805,13.1864242 12.2443143,13.2105868 11.9507255,12.9927017 L11.8666146,12.9200748 L9.9995,11.0512 L8.13383009,12.9172301 C7.84093687,13.2101233 7.36606313,13.2101233 7.07316991,12.9172301 C6.80690335,12.6509635 6.7826973,12.2342998 7.00055176,11.9406883 L7.07316991,11.8565699 L8.9385,9.9902 L7.07061463,8.1230748 C6.77775195,7.83015105 6.77780145,7.35527732 7.0707252,7.06241463 C7.33701952,6.79617583 7.75368572,6.77201321 8.0472745,6.98989828 Z"></path>
                </g>
            </g>
        </g>
    </g>
</svg>