<?xml version="1.0" encoding="UTF-8"?>
<svg width="20px" height="20px" viewBox="0 0 20 20" version="1.1" xmlns="http://www.w3.org/2000/svg" xmlns:xlink="http://www.w3.org/1999/xlink">
    <title>Iconly/Bold/Category</title>
    <defs>
        <path d="M12,1.99999996 C6.47999998,1.99999996 1.99999996,6.47999998 1.99999996,12 C1.99999996,17.52 6.47999998,22 12,22 C17.52,22 22,17.52 22,12 C22,6.47999998 17.52,1.99999996 12,1.99999996 L12,1.99999996 Z M13,19 L11,19 L11,17 L13,17 L13,19 L13,19 Z M15.07,11.25 L14.17,12.17 C13.45,12.9 13,13.5 13,15 L11,15 L11,14.5 C11,13.4 11.45,12.4 12.17,11.67 L13.41,10.41 C13.78,10.05 14,9.54999999 14,8.99999997 C14,7.89999998 13.1,6.99999997 12,6.99999997 C10.9,6.99999997 9.99999998,7.89999998 9.99999998,8.99999997 L7.99999998,8.99999997 C7.99999998,6.78999998 9.78999999,4.99999997 12,4.99999997 C14.21,4.99999997 16,6.78999998 16,8.99999997 C16,9.87999999 15.64,10.68 15.07,11.25 L15.07,11.25 Z" id="path-1"></path>
    </defs>
    <g id="Symbols" stroke="none" stroke-width="1" fill="none" fill-rule="evenodd">
        <g id="Dashboard/Left-Panel/User/Wide" transform="translate(-26.000000, -698.000000)">
            <g id="Navigation" transform="translate(0.000000, 288.000000)">
                <g id="Iconly/Bold/Category" transform="translate(24.000000, 408.000000)">
                    <polygon id="Base" points="-5.00000112e-08 -4.9999926e-08 24 -4.9999926e-08 24 24.0000001 -5.00000112e-08 24.0000001"></polygon>
                    <mask id="mask-2" fill="white">
                        <use xlink:href="#path-1"></use>
                    </mask>
                    <g id="Icon" fill-rule="nonzero"></g>
                    <rect id="↳-🎨-Color" fill="#666666" fill-rule="nonzero" mask="url(#mask-2)" x="0" y="0" width="24" height="24"></rect>
                </g>
            </g>
        </g>
    </g>
</svg>